<svg width="700" height="700" viewBox="0 0 700 700" fill="none" xmlns="http://www.w3.org/2000/svg">
<path d="M309.622 248.904C318.276 248.697 326.674 245.919 333.754 240.923C340.834 235.927 346.277 228.937 349.394 220.837C352.512 212.737 353.163 203.892 351.267 195.42C349.37 186.949 345.011 179.232 338.74 173.246C332.469 167.26 324.571 163.275 316.041 161.794C307.511 160.313 298.733 161.403 290.822 164.926C282.91 168.45 276.218 174.248 271.593 181.587C266.968 188.927 264.618 197.477 264.84 206.157C265.136 217.778 270.018 228.807 278.414 236.821C286.81 244.836 298.034 249.181 309.622 248.904Z" fill="#0047FF"/>
<path d="M699.972 343.949C698.571 288.304 678.581 234.742 643.206 191.853C607.831 148.963 559.121 119.23 504.886 107.421C488.323 103.965 471.462 102.15 454.545 102C437.996 102 417.817 103.239 401.861 107.627C397 109.226 392.344 111.392 387.988 114.081L387.268 114.545L386.109 115.294C385.337 115.81 384.617 116.352 383.896 116.92C378.888 120.794 374.831 125.769 372.038 131.461C369.245 137.153 367.791 143.411 367.786 149.755C368.075 161.066 372.83 171.799 381.005 179.596C389.179 187.394 400.106 191.618 411.384 191.34C413.515 191.233 415.636 191 417.74 190.643L418.872 190.488C431.917 188.097 445.174 187.067 458.43 187.417C486.017 188.456 512.885 196.528 536.498 210.871C560.112 225.214 579.693 245.356 593.392 269.394C607.091 293.433 614.457 320.576 614.796 348.262C615.135 375.948 608.436 403.264 595.329 427.633C582.222 452.001 563.139 472.618 539.884 487.538C516.628 502.458 489.967 511.19 462.414 512.908C434.861 514.626 407.326 509.275 382.407 497.358C357.488 485.442 336.007 467.355 319.991 444.802C303.237 420.305 292.633 395.756 289.905 354.274V354.12C289.068 321.322 277.196 289.773 256.219 264.598C235.243 239.423 206.396 222.104 174.364 215.453C142.332 208.803 108.999 213.213 79.782 227.967C50.5651 242.72 27.1804 266.951 13.4302 296.719C-0.319931 326.488 -3.628 360.046 4.0428 391.94C11.7136 423.833 29.9124 452.187 55.6825 472.395C81.4527 492.602 113.279 503.474 145.989 503.245C178.7 503.016 210.371 491.698 235.857 471.132C262.81 519.676 305.208 557.758 356.277 579.291C407.346 600.825 464.138 604.569 517.578 589.923C571.017 575.277 618.02 543.088 651.074 498.499C684.128 453.909 701.326 399.494 699.92 343.949H699.972ZM204.818 359.437C204.494 375.096 198.077 390.007 186.938 400.983C175.799 411.96 160.822 418.132 145.206 418.181C129.591 418.23 114.575 412.152 103.367 401.245C92.1603 390.338 85.6504 375.468 85.2285 359.812C84.8066 344.155 90.5058 328.954 101.109 317.456C111.713 305.958 126.379 299.075 141.974 298.278C157.57 297.481 172.858 302.833 184.572 313.19C196.286 323.547 203.497 338.088 204.664 353.707C204.664 354.662 204.793 355.617 204.818 356.598C204.844 357.579 204.844 358.353 204.818 359.308V359.437Z" fill="#0047FF"/>
</svg>
