<svg width="530" height="160" viewBox="0 0 530 160" fill="none" xmlns="http://www.w3.org/2000/svg">
<path d="M282.807 154.622L274.075 148.25C275.278 148.03 276.43 147.599 277.48 146.978C279.856 145.523 281.059 143.151 281.059 139.914C281.059 136.677 279.917 134.143 277.685 132.688C276.04 131.609 273.746 131.09 270.692 131.09H263.08C262.804 131.066 262.527 131.103 262.266 131.197C262.006 131.291 261.77 131.44 261.574 131.634C261.378 131.828 261.227 132.062 261.132 132.32C261.037 132.577 261 132.852 261.023 133.125V155.874C261.013 156.074 261.045 156.274 261.117 156.461C261.19 156.648 261.3 156.819 261.442 156.961C261.585 157.104 261.755 157.216 261.943 157.29C262.131 157.363 262.333 157.398 262.535 157.391C262.742 157.402 262.949 157.371 263.143 157.299C263.337 157.228 263.513 157.117 263.662 156.975C263.811 156.832 263.928 156.661 264.007 156.472C264.086 156.282 264.124 156.079 264.119 155.874V134.102H270.681C272.485 134.002 274.277 134.442 275.824 135.365C276.537 135.887 277.101 136.584 277.462 137.387C277.822 138.189 277.967 139.071 277.881 139.945C277.881 142.103 277.161 143.548 275.67 144.383L275.32 144.586C274.178 145.237 273.705 145.502 271.206 145.502H269.488C269.179 145.491 268.875 145.579 268.621 145.753C268.367 145.928 268.177 146.179 268.079 146.469C268.016 146.653 267.985 146.845 267.987 147.039C267.981 147.302 268.044 147.563 268.171 147.794C268.297 148.026 268.481 148.222 268.707 148.362L281.049 157.197C281.344 157.421 281.705 157.543 282.077 157.543C282.277 157.552 282.476 157.519 282.662 157.448C282.848 157.376 283.017 157.267 283.159 157.127C283.3 156.987 283.41 156.82 283.482 156.636C283.555 156.452 283.588 156.255 283.579 156.057C283.59 155.772 283.524 155.489 283.388 155.237C283.253 154.985 283.053 154.773 282.807 154.622Z" fill="#0047FF"/>
<path d="M301.908 130.734C300.099 130.713 298.305 131.053 296.632 131.733C294.958 132.414 293.44 133.42 292.168 134.693C290.881 135.935 289.857 137.42 289.159 139.06C288.46 140.699 288.1 142.461 288.1 144.24C288.1 146.02 288.46 147.781 289.159 149.421C289.857 151.061 290.881 152.545 292.168 153.788C294.774 156.306 298.271 157.716 301.913 157.716C305.556 157.716 309.053 156.306 311.659 153.788C312.942 152.539 313.962 151.05 314.658 149.407C315.354 147.765 315.712 146.001 315.712 144.22C315.712 142.439 315.354 140.675 314.658 139.033C313.962 137.39 312.942 135.901 311.659 134.652C310.386 133.38 308.865 132.377 307.189 131.704C305.513 131.03 303.717 130.7 301.908 130.734ZM309.406 151.62C307.413 153.586 304.713 154.69 301.898 154.69C299.083 154.69 296.383 153.586 294.39 151.62C293.397 150.656 292.609 149.506 292.07 148.237C291.532 146.968 291.255 145.606 291.255 144.23C291.255 142.854 291.532 141.492 292.07 140.223C292.609 138.954 293.397 137.804 294.39 136.841C295.372 135.863 296.541 135.086 297.827 134.557C299.114 134.027 300.494 133.755 301.888 133.755C303.281 133.755 304.661 134.027 305.948 134.557C307.235 135.086 308.403 135.863 309.386 136.841C310.373 137.806 311.157 138.956 311.692 140.224C312.227 141.491 312.502 142.851 312.502 144.225C312.502 145.599 312.227 146.959 311.692 148.226C311.157 149.494 310.373 150.644 309.386 151.609L309.406 151.62Z" fill="#0047FF"/>
<path d="M343.233 131.202C343.033 131.186 342.832 131.212 342.643 131.278C342.453 131.344 342.28 131.448 342.134 131.584C341.987 131.72 341.872 131.885 341.794 132.068C341.715 132.251 341.677 132.448 341.68 132.647V151.731L325.224 131.578C325.091 131.388 324.912 131.234 324.704 131.129C324.496 131.024 324.265 130.972 324.031 130.978C323.839 130.976 323.649 131.004 323.465 131.059L323.373 130.937V131.09C323.121 131.186 322.899 131.344 322.725 131.548C322.475 131.829 322.336 132.191 322.334 132.566V155.854C322.378 156.228 322.559 156.574 322.844 156.825C323.128 157.075 323.496 157.214 323.877 157.214C324.258 157.214 324.625 157.075 324.91 156.825C325.194 156.574 325.376 156.228 325.42 155.854V136.739L341.876 156.943L341.948 157.024C342.101 157.191 342.286 157.326 342.493 157.42C342.7 157.514 342.924 157.567 343.151 157.574C343.323 157.574 343.494 157.543 343.655 157.482C343.906 157.389 344.126 157.231 344.293 157.024C344.54 156.74 344.682 156.381 344.694 156.006V132.739C344.71 132.541 344.684 132.341 344.617 132.154C344.55 131.966 344.445 131.795 344.307 131.65C344.17 131.505 344.003 131.391 343.818 131.313C343.633 131.236 343.434 131.198 343.233 131.202Z" fill="#0047FF"/>
<path d="M377.947 145.461H363.476C363.067 145.461 362.675 145.622 362.385 145.909C362.096 146.195 361.933 146.583 361.933 146.988C361.933 147.393 362.096 147.781 362.385 148.068C362.675 148.354 363.067 148.515 363.476 148.515H375.993C375.734 149.482 375.279 150.387 374.657 151.176C374.035 151.965 373.258 152.621 372.373 153.105C370.644 154.176 368.642 154.734 366.603 154.714C365.228 154.729 363.865 154.458 362.602 153.92C361.339 153.382 360.203 152.588 359.269 151.589C357.786 150.132 356.775 148.271 356.365 146.243C355.955 144.215 356.164 142.112 356.966 140.203C357.768 138.293 359.127 136.663 360.869 135.52C362.611 134.378 364.657 133.774 366.747 133.787C368.162 133.773 369.565 134.058 370.861 134.621C371.72 134.998 372.543 135.451 373.319 135.975C374.831 136.993 375.87 136.107 376.045 135.212C376.23 134.051 375.016 133.176 372.959 132.24C371.04 131.294 368.931 130.786 366.788 130.754C364.98 130.723 363.185 131.055 361.511 131.731C359.837 132.406 358.319 133.41 357.048 134.683C355.776 135.927 354.766 137.409 354.077 139.043C353.388 140.677 353.033 142.429 353.033 144.199C353.033 145.969 353.388 147.722 354.077 149.356C354.766 150.989 355.776 152.471 357.048 153.716C358.27 155.006 359.747 156.033 361.387 156.734C363.027 157.434 364.796 157.793 366.582 157.787C369.092 157.81 371.568 157.208 373.782 156.037C376.357 154.652 378.273 152.313 379.11 149.533C379.476 148.601 379.623 147.598 379.542 146.601C379.453 146.257 379.245 145.953 378.954 145.745C378.662 145.537 378.306 145.436 377.947 145.461Z" fill="#0047FF"/>
<path d="M407.487 152.597L407.056 152.861C405.277 153.958 403.245 154.589 401.152 154.693C399.729 154.735 398.314 154.485 396.993 153.959C395.673 153.434 394.477 152.644 393.479 151.64C391.499 149.655 390.389 146.978 390.389 144.189C390.389 141.4 391.499 138.724 393.479 136.739C394.476 135.742 395.668 134.957 396.982 134.432C398.296 133.907 399.704 133.653 401.121 133.685C402.482 133.708 403.821 134.031 405.04 134.632C405.947 135.041 406.815 135.531 407.631 136.098C409.689 137.655 410.614 136.098 410.563 135.334C410.563 134.316 409.606 133.421 407.272 132.281C404.702 130.91 401.754 130.394 398.865 130.808C395.976 131.222 393.298 132.545 391.227 134.581C389.95 135.843 388.937 137.342 388.246 138.991C387.555 140.641 387.2 142.409 387.2 144.195C387.2 145.98 387.555 147.748 388.246 149.398C388.937 151.047 389.95 152.546 391.227 153.808C392.526 155.069 394.067 156.06 395.759 156.722C397.451 157.385 399.26 157.706 401.08 157.666C403.251 157.612 405.382 157.072 407.313 156.088C408.192 155.696 409.021 155.2 409.781 154.612C410.347 154.134 410.923 153.411 410.604 152.637C410.479 152.378 410.28 152.16 410.031 152.01C409.783 151.86 409.496 151.784 409.205 151.793C408.569 151.899 407.974 152.177 407.487 152.597Z" fill="#0047FF"/>
<path d="M437.643 154.408H423.161V132.606C423.118 132.232 422.936 131.886 422.652 131.635C422.367 131.385 422 131.246 421.619 131.246C421.238 131.246 420.87 131.385 420.585 131.635C420.301 131.886 420.12 132.232 420.076 132.606V155.355C420.056 155.628 420.095 155.901 420.192 156.157C420.288 156.413 420.439 156.645 420.634 156.838C420.829 157.031 421.064 157.181 421.323 157.276C421.581 157.371 421.858 157.411 422.133 157.391H437.643C437.842 157.408 438.043 157.383 438.232 157.319C438.421 157.256 438.595 157.153 438.742 157.019C438.889 156.885 439.006 156.722 439.086 156.541C439.166 156.359 439.207 156.164 439.206 155.966C439.218 155.759 439.186 155.552 439.111 155.359C439.037 155.165 438.923 154.989 438.775 154.842C438.628 154.695 438.451 154.581 438.256 154.506C438.061 154.432 437.852 154.398 437.643 154.408ZM437.643 156.444V156.353V156.444Z" fill="#0047FF"/>
<path d="M454.13 130.733C452.322 130.713 450.527 131.053 448.854 131.733C447.18 132.413 445.662 133.42 444.39 134.693C443.103 135.935 442.079 137.42 441.381 139.059C440.682 140.699 440.322 142.461 440.322 144.24C440.322 146.02 440.682 147.781 441.381 149.421C442.079 151.061 443.103 152.545 444.39 153.787C446.998 156.321 450.507 157.741 454.161 157.741C457.816 157.741 461.324 156.321 463.932 153.787C465.216 152.539 466.235 151.05 466.931 149.407C467.627 147.764 467.986 146.001 467.986 144.22C467.986 142.438 467.627 140.675 466.931 139.032C466.235 137.39 465.216 135.901 463.932 134.652C462.653 133.374 461.125 132.367 459.439 131.693C457.754 131.02 455.948 130.693 454.13 130.733ZM454.13 154.693C452.733 154.721 451.344 154.464 450.051 153.938C448.758 153.413 447.587 152.631 446.612 151.64C445.619 150.676 444.831 149.526 444.292 148.257C443.754 146.989 443.477 145.626 443.477 144.25C443.477 142.874 443.754 141.512 444.292 140.243C444.831 138.974 445.619 137.824 446.612 136.861C447.839 135.64 449.351 134.738 451.015 134.234C452.679 133.731 454.443 133.641 456.15 133.974C457.857 134.306 459.455 135.05 460.801 136.14C462.148 137.23 463.202 138.633 463.87 140.222C464.539 141.812 464.8 143.54 464.631 145.254C464.463 146.968 463.869 148.614 462.904 150.046C461.938 151.479 460.631 152.653 459.097 153.466C457.563 154.278 455.85 154.703 454.11 154.703L454.13 154.693Z" fill="#0047FF"/>
<path d="M495.622 131.202C495.42 131.185 495.217 131.21 495.026 131.275C494.835 131.34 494.66 131.444 494.512 131.58C494.363 131.716 494.246 131.881 494.166 132.065C494.086 132.249 494.046 132.447 494.048 132.647V146.398C494.109 147.533 493.929 148.669 493.52 149.731C493.111 150.793 492.481 151.759 491.672 152.566C490.887 153.288 489.964 153.848 488.957 154.213C487.95 154.579 486.88 154.742 485.809 154.693C484.701 154.749 483.593 154.572 482.558 154.173C481.524 153.774 480.587 153.162 479.81 152.378C479.032 151.594 478.431 150.655 478.047 149.625C477.663 148.594 477.504 147.494 477.581 146.398V132.647C477.586 132.45 477.549 132.254 477.473 132.072C477.397 131.889 477.283 131.725 477.138 131.589C476.994 131.453 476.823 131.348 476.635 131.281C476.447 131.215 476.248 131.188 476.049 131.202C475.848 131.186 475.647 131.212 475.457 131.278C475.267 131.344 475.093 131.448 474.946 131.584C474.799 131.72 474.682 131.885 474.602 132.068C474.523 132.251 474.483 132.448 474.485 132.647V146.398C474.485 149.378 475.682 152.237 477.811 154.344C479.941 156.451 482.829 157.635 485.84 157.635C488.852 157.635 491.74 156.451 493.87 154.344C495.999 152.237 497.195 149.378 497.195 146.398V132.647C497.201 132.446 497.163 132.246 497.084 132.061C497.005 131.876 496.888 131.709 496.739 131.572C496.59 131.436 496.413 131.332 496.22 131.268C496.028 131.204 495.824 131.182 495.622 131.202Z" fill="#0047FF"/>
<path d="M524.667 134.418C522.003 132.209 518.496 131.09 514.135 131.09H508.097C507.822 131.07 507.546 131.109 507.287 131.205C507.028 131.3 506.794 131.449 506.598 131.642C506.403 131.835 506.253 132.068 506.156 132.324C506.06 132.58 506.02 132.853 506.04 133.126V155.376C506.02 155.648 506.06 155.921 506.156 156.177C506.253 156.433 506.403 156.666 506.598 156.859C506.794 157.052 507.028 157.201 507.287 157.296C507.546 157.392 507.822 157.431 508.097 157.411H514.135C518.742 157.411 522.435 156.159 525.109 153.696C526.392 152.486 527.402 151.02 528.07 149.395C528.738 147.771 529.051 146.024 528.986 144.271C529.077 142.411 528.735 140.555 527.986 138.847C527.237 137.138 526.101 135.623 524.667 134.418ZM522.959 151.355C520.902 153.391 517.909 154.409 514.176 154.409H509.126V134.123H514.176C517.134 134.013 520.04 134.915 522.404 136.678C523.542 137.58 524.448 138.737 525.045 140.054C525.642 141.371 525.914 142.809 525.839 144.25C525.894 145.571 525.667 146.888 525.173 148.116C524.678 149.344 523.927 150.454 522.97 151.375L522.959 151.355Z" fill="#0047FF"/>
<path fill-rule="evenodd" clip-rule="evenodd" d="M209.191 29.7903C220.641 43.4853 227.115 60.5867 227.578 78.3557L227.526 78.2539C227.922 95.9592 222.324 113.287 211.623 127.482C200.922 141.677 185.733 151.923 168.47 156.592C151.208 161.26 132.864 160.083 116.355 153.247C99.8463 146.411 86.1213 134.309 77.3625 118.866C69.1138 125.438 58.8616 129.056 48.2721 129.132C37.6825 129.208 27.3783 125.737 19.034 119.285C10.6898 112.832 4.79604 103.776 2.31077 93.5887C-0.174505 83.4015 0.894761 72.6821 5.34479 63.1725C9.79481 53.6628 17.364 45.9221 26.8221 41.2084C36.2802 36.4946 47.0712 35.085 57.4414 37.2086C67.8115 39.3322 77.151 44.8641 83.9421 52.9054C90.7331 60.9466 94.5764 71.0243 94.8474 81.5007C95.7319 94.7326 99.1569 102.59 104.587 110.407C109.771 117.614 116.725 123.395 124.792 127.203C132.86 131.012 141.775 132.723 150.697 132.176C159.618 131.628 168.252 128.839 175.782 124.072C183.312 119.306 189.49 112.719 193.733 104.934C197.977 97.1481 200.145 88.4209 200.034 79.5758C199.923 70.7306 197.536 62.0594 193.098 54.3807C188.66 46.7021 182.318 40.2694 174.671 35.6898C167.023 31.1102 158.322 28.5348 149.39 28.2068C145.098 28.1134 140.807 28.4545 136.585 29.2246L136.214 29.2857C136.098 29.3012 135.966 29.3207 135.825 29.3415C135.319 29.4163 134.688 29.5096 134.157 29.5096C130.507 29.5944 126.972 28.2421 124.328 25.7498C121.684 23.2576 120.148 19.8289 120.056 16.2167C120.057 14.1908 120.527 12.1919 121.431 10.3743C122.335 8.55667 123.649 6.96877 125.271 5.73297L125.981 5.21386L126.361 4.97972L126.598 4.83727C128.006 3.98494 129.511 3.30157 131.082 2.80159C136.245 1.39698 142.776 1 148.135 1C153.612 1.08226 159.069 1.69243 164.427 2.82191C181.978 6.59887 197.741 16.0953 209.191 29.7903ZM61.1837 96.3031C64.8656 92.9131 67.062 88.2326 67.3036 83.2616V83.2108C67.3104 83.0091 67.3083 82.8297 67.306 82.6432C67.3048 82.5472 67.3036 82.4494 67.3036 82.3456V81.4295C67.062 76.4585 64.8656 71.7781 61.1837 68.3881C57.5018 64.9981 52.6263 63.1674 47.5987 63.287C42.5712 63.4066 37.7902 65.4671 34.2772 69.0283C30.7641 72.5894 28.7975 77.3689 28.7975 82.3456C28.7975 87.3224 30.7641 92.1018 34.2772 95.663C37.7902 99.2241 42.5712 101.285 47.5987 101.404C52.6263 101.524 57.5018 99.6931 61.1837 96.3031ZM109.019 45.3996C106.733 46.9942 104.021 47.8822 101.225 47.9515C99.3678 47.9975 97.5195 47.6809 95.7859 47.0198C94.0523 46.3586 92.4673 45.366 91.1215 44.0984C89.7757 42.8308 88.6954 41.3133 87.9425 39.6324C87.1896 37.9516 86.7787 36.1403 86.7333 34.3023C86.665 31.5355 87.4272 28.8108 88.9236 26.4726C90.4199 24.1344 92.5832 22.2878 95.1399 21.1662C97.6966 20.0445 100.532 19.6982 103.288 20.1711C106.043 20.644 108.595 21.9148 110.621 23.8228C112.647 25.7309 114.056 28.1905 114.669 30.8907C115.282 33.591 115.073 36.4106 114.067 38.9931C113.062 41.5756 111.305 43.8051 109.019 45.3996Z" fill="#0047FF"/>
<path d="M433.527 17.4787H518.894C519.96 17.4906 520.989 17.0929 521.764 16.3692C522.548 15.6473 523.026 14.6579 523.101 13.6007C523.184 12.9647 523.11 12.3181 522.884 11.717C522.658 11.1158 522.288 10.578 521.805 10.1502C521 9.44898 519.967 9.05864 518.894 9.05097H433.476C432.903 9.04286 432.334 9.1496 431.804 9.36475C431.273 9.57991 430.792 9.89907 430.39 10.3029C429.981 10.6981 429.662 11.1745 429.452 11.7009C429.243 12.2272 429.149 12.7915 429.177 13.3565C429.173 14.427 429.564 15.4621 430.277 16.2675C430.697 16.6917 431.205 17.0198 431.767 17.2291C432.328 17.4383 432.929 17.5235 433.527 17.4787Z" fill="#0047FF"/>
<path d="M520.914 94.5696C517.345 89.0224 514.465 84.7474 512.12 81.5107C509.775 78.274 508.181 75.9839 507.296 74.5793C506.578 73.3535 505.66 72.2531 504.581 71.3221C503.799 70.6365 502.814 70.2189 501.773 70.1313C501.211 70.1041 500.65 70.2025 500.132 70.4192C499.614 70.636 499.152 70.9655 498.78 71.3833C498.216 71.9855 497.856 72.7471 497.751 73.5615C497.586 74.5905 497.825 75.6433 498.42 76.503C498.924 77.2155 500.035 78.7422 501.619 80.9L504.704 85.3683C507.728 89.572 510.423 93.9894 513.416 98.1829L445.739 99.0582C449.112 94.6815 452.223 90.1139 455.058 85.3785C457.67 80.9509 460.869 75.0576 464.571 67.8717C467.633 62.0243 470.397 56.0285 472.851 49.9069H523.639C524.164 49.9103 524.685 49.8103 525.17 49.6129C525.656 49.4154 526.097 49.1244 526.468 48.7567C527.23 48.0381 527.699 47.0672 527.784 46.0289C527.868 45.3937 527.795 44.748 527.571 44.147C527.347 43.546 526.979 43.0077 526.499 42.5784C525.69 41.8765 524.653 41.4863 523.577 41.4792H429.231C428.658 41.4619 428.087 41.5634 427.556 41.7772C427.025 41.9911 426.544 42.3125 426.146 42.7209C425.764 43.1165 425.465 43.5826 425.266 44.0926C425.067 44.6025 424.971 45.1463 424.984 45.693C424.958 46.7777 425.348 47.8319 426.074 48.6447C426.487 49.0754 426.99 49.4115 427.547 49.6295C428.105 49.8475 428.705 49.9422 429.303 49.9069H463.245C461.188 55.1284 458.452 60.9708 455.171 67.2915C451.571 74.2332 448.197 80.3606 445.112 85.521C443.167 88.9922 440.971 92.319 438.54 95.4754C437.628 96.6024 436.593 97.6264 435.454 98.5289C434.868 98.9383 434.315 99.3909 433.798 99.8827C433.506 100.06 433.236 100.272 432.996 100.514C432.593 100.912 432.279 101.39 432.076 101.916C431.872 102.442 431.782 103.005 431.813 103.567C431.824 104.634 432.23 105.659 432.955 106.448C433.359 106.87 433.853 107.201 434.4 107.415C434.947 107.63 435.535 107.723 436.123 107.689H436.205L518.61 106.672C518.785 106.997 518.949 107.303 519.103 107.608C519.558 108.591 520.15 109.506 520.862 110.326C521.57 111.074 522.538 111.531 523.571 111.605C524.604 111.678 525.628 111.363 526.437 110.723C528.391 109.115 527.897 106.824 527.044 104.809C525.194 101.286 523.148 97.8675 520.914 94.5696Z" fill="#0047FF"/>
<path d="M303.534 51.0878H270.929C268.29 50.9974 265.715 51.9076 263.73 53.6324C261.611 55.6681 260.953 58.3653 260.953 61.1644V108.392C260.936 109.279 261.243 110.143 261.817 110.825C262.165 111.215 262.6 111.521 263.087 111.718C263.573 111.916 264.1 112 264.625 111.965H264.82C265.369 111.965 265.913 111.856 266.419 111.645C266.925 111.434 267.383 111.125 267.766 110.736C268.15 110.348 268.45 109.887 268.651 109.381C268.852 108.875 268.948 108.335 268.934 107.792C268.934 106.855 268.934 105.909 268.934 104.962V63.1695C268.934 60.3501 270.22 59.0981 273.11 59.0981H302.248C304.089 59.0981 305.076 59.4747 305.776 60.2585C306.059 60.6046 306.268 61.0042 306.39 61.433C306.512 61.8617 306.545 62.3107 306.485 62.7522V105.837C306.485 107.456 306.28 109.074 307.432 110.418C307.812 110.844 308.273 111.192 308.79 111.441C309.307 111.69 309.868 111.836 310.442 111.869C311.016 111.902 311.591 111.822 312.133 111.634C312.676 111.446 313.175 111.154 313.603 110.774C313.948 110.492 314.23 110.144 314.434 109.75C314.637 109.356 314.757 108.925 314.786 108.484V60.9099C314.909 58.878 314.46 56.852 313.49 55.0573C311.906 52.2176 309.283 51.0878 303.534 51.0878Z" fill="#0047FF"/>
<path d="M311.764 8.03314H266.272C265.302 8.028 264.356 8.33527 263.577 8.90853C263.118 9.27027 262.756 9.73759 262.521 10.2698C262.286 10.802 262.186 11.3829 262.23 11.962C262.178 12.5138 262.242 13.0702 262.419 13.596C262.596 14.1217 262.882 14.6052 263.259 15.0156C263.689 15.411 264.197 15.7152 264.75 15.9095C265.304 16.1038 265.892 16.1841 266.478 16.1453H311.764C312.261 16.1399 312.751 16.0247 313.197 15.8081C313.644 15.5915 314.036 15.279 314.345 14.8934C315.054 14.0585 315.421 12.9907 315.374 11.901C315.389 10.9327 315.026 9.99585 314.362 9.28506C313.697 8.57428 312.781 8.14417 311.805 8.08409L311.764 8.03314Z" fill="#0047FF"/>
<path d="M287.962 45.968H301.158C309.026 45.968 310.682 41.2859 310.682 37.3571V28.4816C310.682 22.3746 307.494 19.9827 301.6 19.9827H274.962C269.068 19.9827 265.88 22.3542 265.88 28.4816V37.3775C265.88 41.3063 267.536 45.9884 275.404 45.9884L287.962 45.968ZM273.913 34.9347V30.7412C273.881 30.3451 273.932 29.9469 274.061 29.5707C274.19 29.1945 274.395 28.8482 274.663 28.5528C275.438 28.1307 276.323 27.9464 277.204 28.0235H299.358C300.239 27.9458 301.124 28.1301 301.899 28.5528C302.167 28.8484 302.373 29.1944 302.504 29.5704C302.635 29.9463 302.688 30.3445 302.66 30.7412V34.9347C302.66 35.6574 302.66 37.1434 301.95 37.6421C301.053 38.0471 300.059 38.1985 299.08 38.0798H277.482C276.503 38.1985 275.509 38.0471 274.612 37.6421C273.933 37.1434 273.913 35.6574 273.913 34.9347Z" fill="#0047FF"/>
<path d="M365.244 98.2849C364.37 95.6793 363.311 92.2288 362.416 89.2669C361.521 86.305 360.102 82.7731 356.883 82.7527C355.967 82.734 355.071 83.0182 354.337 83.5602C353.603 84.1022 353.073 84.8712 352.83 85.7452C352.429 87.4857 353.519 90.4781 354.342 92.5851C355.165 94.692 355.134 94.6207 356.399 98.7939L356.759 100.036L343.45 100.504V78.997H351.503C357.592 78.997 359.526 76.035 360.215 74.1113C360.573 72.6978 360.732 71.2421 360.688 69.7855V28.1966C360.809 26.4991 360.61 24.7942 360.102 23.1686C358.826 19.9726 354.754 19.6977 351.771 19.6977H343.45V9.4379C343.441 9.00911 343.346 8.58643 343.169 8.19481C342.993 7.80318 342.738 7.4506 342.422 7.15796C342.01 6.78069 341.522 6.49476 340.99 6.31922C340.458 6.14369 339.894 6.0826 339.336 6.14012C338.218 6.10494 337.132 6.50727 336.312 7.25978C336.004 7.53801 335.755 7.87358 335.578 8.24736C335.402 8.62114 335.302 9.02572 335.284 9.4379V19.6977H328.012C324.597 19.6977 319.074 19.3924 318.169 23.7691C317.951 25.3677 317.892 26.9837 317.994 28.5936V69.3071C317.962 70.8187 318.111 72.3289 318.436 73.806C318.805 75.1115 319.515 76.298 320.493 77.2463C321.604 78.3863 323.826 78.946 327.292 78.946H335.386V100.748L321.172 101.227C320.604 101.238 320.043 101.364 319.525 101.597C319.007 101.83 318.542 102.164 318.159 102.58C317.77 102.986 317.47 103.466 317.277 103.992C317.084 104.517 317.003 105.076 317.038 105.634C317.077 106.703 317.504 107.722 318.241 108.504C318.647 108.896 319.131 109.2 319.662 109.398C320.193 109.596 320.76 109.683 321.327 109.654H321.522L359.33 108.341L359.413 108.596C359.814 109.776 360.174 111.496 361.213 112.301C361.677 112.618 362.215 112.814 362.776 112.871C363.682 113.071 364.629 112.982 365.481 112.616C366.333 112.25 367.046 111.627 367.517 110.835C368.546 109.054 367.847 106.987 367.384 105.145C366.921 103.303 366.139 100.911 365.244 98.2849ZM343.512 27.9626H349.251C350.067 27.8997 350.886 28.0216 351.647 28.3188C352.011 28.4891 352.303 28.7811 352.47 29.1433C352.687 29.7046 352.789 30.3034 352.768 30.9041V65.2561C352.872 66.5655 352.841 67.8818 352.676 69.185C352.626 69.3919 352.546 69.5907 352.439 69.7753C352.284 70.0604 352.062 70.3048 351.791 70.4878C351.489 70.6905 351.127 70.7873 350.763 70.7627L343.491 70.8237L343.512 27.9626ZM335.284 70.8237L328.002 70.7627C327.637 70.7889 327.275 70.692 326.973 70.4878C326.549 70.1722 326.259 69.7112 326.161 69.1952C325.991 67.8924 325.96 66.5755 326.068 65.2663V30.9041C326.048 30.3034 326.149 29.7046 326.366 29.1433C326.531 28.779 326.823 28.4861 327.189 28.3188C327.95 28.0216 328.77 27.8997 329.586 27.9626H335.325L335.284 70.8237Z" fill="#0047FF"/>
<path d="M301.663 76.32H295.893C296.623 76.32 297.95 74.5184 298.259 74.04C299.914 71.885 301.206 69.4789 302.085 66.9152C302.517 65.5105 302.959 63.8616 302.157 62.5486C300.871 60.574 297.641 60.0244 295.986 61.8565C294.669 63.3019 294.288 65.2051 293.363 66.854C292.729 67.9733 292.004 69.0389 291.193 70.0399C290.421 70.9966 289.382 71.7906 289.136 73.0426C288.951 73.6173 288.942 74.2333 289.11 74.813C289.279 75.3926 289.617 75.9099 290.082 76.2996H282.646C283.076 76.1646 283.474 75.9443 283.815 75.652C284.156 75.3598 284.434 75.0018 284.631 74.5999C285.412 73.0121 284.579 71.2002 284.024 69.6735C283.48 68.1629 282.841 66.6876 282.111 65.2561C281.555 63.9648 280.756 62.7902 279.756 61.7954C277.472 59.7597 273.584 60.7776 273.08 63.8311C272.844 65.2866 273.636 66.5487 274.5 67.9024C276.505 71.2002 277.256 73.867 277.904 74.783C278.353 75.4743 279.034 75.9863 279.828 76.2284H275.611C273.08 76.2895 270.334 76.7577 270.139 79.913C270.046 81.3888 270.674 83.8418 273.677 83.8418H283.602V107.099C283.602 109.278 284.394 111.731 287.552 111.731C290.709 111.731 291.666 109.563 291.666 107.099V83.8418C295.224 83.8418 298.577 83.9538 302.136 83.8418C302.756 83.8361 303.365 83.6751 303.905 83.3736C304.48 83.0246 304.945 82.5228 305.247 81.9255C305.549 81.3282 305.676 80.6592 305.613 79.9943C305.64 79.4843 305.554 78.9745 305.362 78.5005C305.17 78.0265 304.876 77.5998 304.5 77.25C304.124 76.9001 303.675 76.6357 303.185 76.475C302.695 76.3144 302.176 76.2615 301.663 76.32Z" fill="#0047FF"/>
</svg>
